<svg width="500" height="500" viewBox="0 0 500 500" fill="none" xmlns="http://www.w3.org/2000/svg">
<rect width="500" height="500" fill="white"/>
<path d="M206.617 206.436C197.793 195.601 188.082 200.889 184.235 205.285C187.706 215.344 202.448 216.859 205.668 210.405C214.78 210.904 220.523 217.306 220.898 220.421C222.978 218.736 223.962 218.132 223.962 218.132C221.429 210.406 212.1 206.847 206.617 206.436Z" fill="#3E8E4A"/>
<path d="M265.324 210.982C256.189 203.771 260.471 195.617 264.083 192.358C272.504 195.121 273.952 207.379 268.618 210.143C269.148 217.724 274.552 222.426 277.151 222.699C275.774 224.453 275.283 225.28 275.283 225.28C268.817 223.268 265.735 215.544 265.324 210.982Z" fill="#3E8E4A"/>
<path d="M287.264 199.452C284 179.865 298.69 171.703 316.644 174.967C321.543 191.291 315.014 209.247 293.793 205.982L287.264 199.452Z" fill="#3E8E4A"/>
<path d="M250.83 232.507L224.227 207.304C222.994 206.136 221.038 206.223 219.914 207.497L174.978 258.425C173.884 259.664 173.999 261.554 175.234 262.652L178.091 265.192C179.334 266.297 181.239 266.179 182.337 264.93L219.943 222.163C221.055 220.898 222.99 220.796 224.229 221.937L250.836 246.444C252.032 247.546 253.888 247.494 255.02 246.328L306.3 193.541C307.491 192.315 307.418 190.343 306.141 189.208L303.289 186.673C302.087 185.605 300.257 185.674 299.139 186.829L255.049 232.414C253.906 233.597 252.024 233.638 250.83 232.507Z" fill="#3E8E4A"/>
<path d="M139.576 292.72C140.28 293.968 141.048 295.056 141.88 295.984C142.744 296.912 143.688 297.632 144.712 298.144C145.736 298.656 146.84 298.912 148.024 298.912C149.4 298.912 150.52 298.56 151.384 297.856C152.248 297.152 152.68 296.192 152.68 294.976C152.68 293.92 152.408 293.072 151.864 292.432C151.352 291.792 150.568 291.232 149.512 290.752C148.488 290.24 147.224 289.696 145.72 289.12C144.92 288.832 143.992 288.448 142.936 287.968C141.912 287.456 140.936 286.816 140.008 286.048C139.08 285.248 138.312 284.288 137.704 283.168C137.096 282.016 136.792 280.64 136.792 279.04C136.792 277.12 137.272 275.472 138.232 274.096C139.224 272.688 140.552 271.616 142.216 270.88C143.912 270.112 145.8 269.728 147.88 269.728C150.024 269.728 151.864 270.096 153.4 270.832C154.968 271.536 156.264 272.448 157.288 273.568C158.344 274.656 159.16 275.792 159.736 276.976L154.36 279.952C153.912 279.152 153.368 278.432 152.728 277.792C152.12 277.12 151.416 276.592 150.616 276.208C149.816 275.792 148.904 275.584 147.88 275.584C146.536 275.584 145.528 275.904 144.856 276.544C144.184 277.152 143.848 277.872 143.848 278.704C143.848 279.536 144.12 280.272 144.664 280.912C145.208 281.52 146.04 282.112 147.16 282.688C148.28 283.232 149.688 283.792 151.384 284.368C152.472 284.752 153.512 285.232 154.504 285.808C155.528 286.384 156.44 287.088 157.24 287.92C158.072 288.72 158.712 289.68 159.16 290.8C159.64 291.888 159.88 293.152 159.88 294.592C159.88 296.224 159.56 297.68 158.92 298.96C158.28 300.24 157.4 301.328 156.28 302.224C155.16 303.088 153.896 303.744 152.488 304.192C151.112 304.672 149.656 304.912 148.12 304.912C146.072 304.912 144.152 304.528 142.36 303.76C140.6 302.96 139.064 301.888 137.752 300.544C136.44 299.2 135.416 297.744 134.68 296.176L139.576 292.72ZM197.54 289.888V304H191.3V290.56C191.3 289.056 191.044 287.936 190.532 287.2C190.02 286.432 189.188 286.048 188.036 286.048C187.268 286.048 186.596 286.224 186.02 286.576C185.444 286.896 184.996 287.408 184.676 288.112C184.356 288.784 184.196 289.6 184.196 290.56V304H178.004V290.56C178.004 289.056 177.748 287.936 177.236 287.2C176.724 286.432 175.892 286.048 174.74 286.048C173.972 286.048 173.3 286.224 172.724 286.576C172.148 286.896 171.7 287.408 171.38 288.112C171.06 288.784 170.9 289.6 170.9 290.56V304H164.9V281.92H170.9V285.184C171.54 283.968 172.388 283.04 173.444 282.4C174.5 281.76 175.764 281.44 177.236 281.44C178.868 281.44 180.212 281.76 181.268 282.4C182.324 283.04 183.092 283.984 183.572 285.232C184.372 283.984 185.348 283.04 186.5 282.4C187.684 281.76 189.028 281.44 190.532 281.44C192.164 281.44 193.492 281.776 194.516 282.448C195.54 283.088 196.292 284.048 196.772 285.328C197.284 286.576 197.54 288.096 197.54 289.888ZM208.082 297.136C208.082 297.776 208.242 298.336 208.562 298.816C208.882 299.264 209.314 299.616 209.858 299.872C210.434 300.096 211.058 300.208 211.73 300.208C212.69 300.208 213.554 300.016 214.322 299.632C215.09 299.216 215.714 298.64 216.194 297.904C216.674 297.136 216.914 296.224 216.914 295.168L217.682 298.048C217.682 299.456 217.282 300.64 216.482 301.6C215.714 302.56 214.706 303.28 213.458 303.76C212.242 304.24 210.962 304.48 209.618 304.48C208.242 304.48 206.962 304.208 205.778 303.664C204.594 303.12 203.634 302.336 202.898 301.312C202.194 300.256 201.842 298.976 201.842 297.472C201.842 295.328 202.594 293.632 204.098 292.384C205.602 291.136 207.73 290.512 210.482 290.512C211.89 290.512 213.122 290.656 214.178 290.944C215.266 291.232 216.178 291.584 216.914 292C217.65 292.416 218.178 292.816 218.498 293.2V296.08C217.634 295.44 216.658 294.96 215.57 294.64C214.514 294.32 213.394 294.16 212.21 294.16C211.25 294.16 210.466 294.288 209.858 294.544C209.25 294.768 208.802 295.104 208.514 295.552C208.226 295.968 208.082 296.496 208.082 297.136ZM205.682 288.16L203.378 283.936C204.53 283.328 205.938 282.752 207.602 282.208C209.266 281.632 211.122 281.344 213.17 281.344C215.058 281.344 216.738 281.616 218.21 282.16C219.682 282.704 220.834 283.504 221.666 284.56C222.498 285.584 222.914 286.848 222.914 288.352V304H216.914V289.648C216.914 289.04 216.818 288.528 216.626 288.112C216.434 287.664 216.13 287.296 215.714 287.008C215.33 286.72 214.866 286.512 214.322 286.384C213.778 286.256 213.17 286.192 212.498 286.192C211.474 286.192 210.498 286.304 209.57 286.528C208.642 286.752 207.842 287.024 207.17 287.344C206.498 287.664 206.002 287.936 205.682 288.16ZM234.793 281.92V304H228.697V281.92H234.793ZM241.273 288.4C240.857 288.016 240.425 287.728 239.977 287.536C239.561 287.312 239.033 287.2 238.393 287.2C237.625 287.2 236.969 287.408 236.425 287.824C235.881 288.24 235.465 288.832 235.177 289.6C234.921 290.336 234.793 291.232 234.793 292.288L233.065 290.56C233.065 288.8 233.401 287.248 234.073 285.904C234.745 284.528 235.625 283.44 236.713 282.64C237.801 281.808 238.921 281.392 240.073 281.392C240.873 281.392 241.625 281.536 242.329 281.824C243.065 282.112 243.657 282.544 244.105 283.12L241.273 288.4ZM244.568 281.92H258.2V287.152H244.568V281.92ZM248.36 274.24H254.36V304H248.36V274.24ZM266.742 296.368L267.558 290.944H283.686L284.502 296.368H266.742ZM275.526 281.296L270.486 292.864L270.63 294.4L266.214 304H258.486L275.526 268.432L292.566 304H284.79L280.47 294.688L280.566 292.96L275.526 281.296ZM294.579 305.536H300.675C300.707 306.496 300.963 307.312 301.443 307.984C301.923 308.688 302.579 309.232 303.411 309.616C304.243 310 305.219 310.192 306.339 310.192C307.363 310.192 308.323 309.952 309.219 309.472C310.147 308.992 310.883 308.256 311.427 307.264C312.003 306.272 312.291 305.024 312.291 303.52V281.92H318.291V303.52C318.291 306.24 317.747 308.48 316.659 310.24C315.603 312 314.179 313.28 312.387 314.08C310.595 314.912 308.643 315.328 306.531 315.328C303.971 315.328 301.827 314.912 300.099 314.08C298.371 313.28 297.043 312.128 296.115 310.624C295.219 309.152 294.707 307.456 294.579 305.536ZM294.146 292.768C294.146 290.304 294.643 288.24 295.635 286.576C296.627 284.88 297.939 283.6 299.571 282.736C301.203 281.872 302.931 281.44 304.755 281.44C306.611 281.44 308.243 281.888 309.651 282.784C311.091 283.68 312.211 284.976 313.011 286.672C313.843 288.336 314.259 290.368 314.259 292.768C314.259 295.136 313.843 297.168 313.011 298.864C312.211 300.56 311.091 301.856 309.651 302.752C308.243 303.616 306.611 304.048 304.755 304.048C302.931 304.048 301.203 303.616 299.571 302.752C297.939 301.888 296.627 300.624 295.635 298.96C294.643 297.264 294.146 295.2 294.146 292.768ZM300.579 292.768C300.579 294.08 300.851 295.2 301.395 296.128C301.939 297.024 302.675 297.712 303.603 298.192C304.531 298.672 305.523 298.912 306.579 298.912C307.507 298.912 308.403 298.688 309.267 298.24C310.163 297.76 310.883 297.072 311.427 296.176C312.003 295.248 312.291 294.112 312.291 292.768C312.291 291.744 312.131 290.848 311.811 290.08C311.491 289.312 311.043 288.672 310.467 288.16C309.923 287.648 309.315 287.264 308.643 287.008C307.971 286.72 307.283 286.576 306.579 286.576C305.523 286.576 304.531 286.816 303.603 287.296C302.675 287.776 301.939 288.48 301.395 289.408C300.851 290.304 300.579 291.424 300.579 292.768ZM330.418 281.92V304H324.322V281.92H330.418ZM336.898 288.4C336.482 288.016 336.05 287.728 335.602 287.536C335.186 287.312 334.658 287.2 334.018 287.2C333.25 287.2 332.594 287.408 332.05 287.824C331.506 288.24 331.09 288.832 330.802 289.6C330.546 290.336 330.418 291.232 330.418 292.288L328.69 290.56C328.69 288.8 329.026 287.248 329.698 285.904C330.37 284.528 331.25 283.44 332.338 282.64C333.426 281.808 334.546 281.392 335.698 281.392C336.498 281.392 337.25 281.536 337.954 281.824C338.69 282.112 339.282 282.544 339.73 283.12L336.898 288.4ZM340.834 292.96C340.834 290.656 341.362 288.64 342.418 286.912C343.506 285.184 344.962 283.84 346.786 282.88C348.642 281.92 350.738 281.44 353.074 281.44C355.41 281.44 357.49 281.92 359.314 282.88C361.17 283.84 362.626 285.184 363.682 286.912C364.77 288.64 365.314 290.656 365.314 292.96C365.314 295.232 364.77 297.248 363.682 299.008C362.626 300.736 361.17 302.08 359.314 303.04C357.49 304 355.41 304.48 353.074 304.48C350.738 304.48 348.642 304 346.786 303.04C344.962 302.08 343.506 300.736 342.418 299.008C341.362 297.248 340.834 295.232 340.834 292.96ZM347.17 292.96C347.17 294.208 347.426 295.312 347.938 296.272C348.482 297.2 349.202 297.936 350.098 298.48C350.994 298.992 351.986 299.248 353.074 299.248C354.162 299.248 355.154 298.992 356.05 298.48C356.946 297.936 357.65 297.2 358.162 296.272C358.706 295.312 358.978 294.208 358.978 292.96C358.978 291.712 358.706 290.608 358.162 289.648C357.65 288.688 356.946 287.952 356.05 287.44C355.154 286.928 354.162 286.672 353.074 286.672C351.986 286.672 350.994 286.928 350.098 287.44C349.202 287.952 348.482 288.688 347.938 289.648C347.426 290.608 347.17 291.712 347.17 292.96Z" fill="#222225"/>
</svg>
